<svg data-v-423bf9ae="" xmlns="http://www.w3.org/2000/svg" viewBox="0 0 334.0535121374867 466" class="iconAbove"><!----><!----><!----><g data-v-423bf9ae="" id="b6860e59-695e-4fa7-a09d-0eaae960fb85" fill="white" transform="matrix(4.467610044470482,0,0,4.467610044470482,26.118332220545597,390.6943720459092)"><path d="M6.82 4.49L6.72 4.49L6.72 4.49Q5.89 4.28 4.73 4.28L4.73 4.28L4.73 4.28Q3.56 4.28 3.23 4.31L3.23 4.31L3.23 4.31Q3.21 4.84 3.21 7.76L3.21 7.76L6.54 7.69L6.13 8.65L6.03 8.65L6.03 8.65Q5.08 8.54 4.52 8.54L4.52 8.54L4.52 8.54Q3.96 8.54 3.21 8.58L3.21 8.58L3.21 8.58Q3.21 11.98 3.26 12.40L3.26 12.40L3.26 12.40Q3.58 12.45 4.33 12.45L4.33 12.45L4.33 12.45Q6.52 12.45 7.53 12.00L7.53 12.00L7.63 12.00L7.38 13.29L1.51 13.29L1.51 13.19L1.51 13.19Q1.74 12.32 1.74 10.35L1.74 10.35L1.74 6.43L1.74 6.43Q1.74 4.45 1.51 3.58L1.51 3.58L1.51 3.49L7.17 3.44L6.82 4.49ZM12.61 12.54L12.61 12.54L12.61 12.54Q13.24 12.54 13.54 12.38L13.54 12.38L13.54 12.38Q13.76 12.11 13.94 11.31L13.94 11.31L13.94 11.31Q14.13 10.51 14.13 9.77L14.13 9.77L14.13 9.77Q14.13 7.43 12.71 7.43L12.71 7.43L12.71 7.43Q11.82 7.43 10.75 8.18L10.75 8.18L10.75 11.96L10.75 11.96Q11.63 12.54 12.61 12.54ZM9.44 14.69L9.44 14.69L9.44 8.89L9.44 8.89Q9.44 8.27 9.24 7.73L9.24 7.73L9.24 7.73Q9.04 7.20 8.72 7.00L8.72 7.00L8.71 6.83L10.63 6.38L10.71 6.52L10.71 6.52Q10.68 6.85 10.68 7.43L10.68 7.43L10.68 7.43Q11.84 6.40 13.00 6.40L13.00 6.40L13.00 6.40Q14.15 6.40 14.89 7.31L14.89 7.31L14.89 7.31Q15.62 8.22 15.62 9.52L15.62 9.52L15.62 9.52Q15.62 11.14 14.66 12.30L14.66 12.30L14.66 12.30Q13.69 13.45 12.46 13.45L12.46 13.45L12.46 13.45Q11.65 13.45 10.75 13.15L10.75 13.15L10.75 14.10L10.75 14.10Q10.78 15.78 11.33 16.45L11.33 16.45L11.33 16.52L9.39 16.73L9.39 16.73Q9.44 16.17 9.44 14.69ZM17.61 11.34L17.61 11.34L17.61 8.62L17.61 8.62Q17.61 7.38 16.91 6.89L16.91 6.89L16.91 6.72L18.89 6.38L18.97 6.52L18.97 6.52Q18.93 6.93 18.93 7.69L18.93 7.69L18.93 10.99L18.93 10.99Q18.93 12.39 19.28 13.19L19.28 13.19L19.28 13.29L17.39 13.29L17.39 13.19L17.39 13.19Q17.61 12.53 17.61 11.34ZM18.79 3.37L18.79 3.37L18.79 3.37Q18.98 3.54 18.98 4.19L18.98 4.19L18.98 4.19Q18.98 4.34 18.97 4.47L18.97 4.47L18.86 4.56L18.86 4.56Q18.30 4.72 17.53 4.79L17.53 4.79L17.40 4.73L17.40 4.73Q17.19 4.37 17.19 3.77L17.19 3.77L17.19 3.77Q17.19 3.70 17.19 3.63L17.19 3.63L17.30 3.53L17.30 3.53Q17.98 3.30 18.59 3.30L18.59 3.30L18.59 3.30Q18.66 3.30 18.79 3.37ZM23.06 7.35L23.06 7.35Q22.60 7.63 22.33 8.32L22.33 8.32L22.33 8.32Q22.06 9.02 22.06 9.97L22.06 9.97L22.06 9.97Q22.06 10.93 22.45 11.65L22.45 11.65L22.45 11.65Q22.83 12.36 23.67 12.36L23.67 12.36L23.67 12.36Q24.23 12.36 24.98 12.10L24.98 12.10L24.98 12.10Q25.72 11.84 25.96 11.66L25.96 11.66L26.31 12.21L26.31 12.21Q24.51 13.44 23.59 13.44L23.59 13.44L23.59 13.44Q22.19 13.44 21.38 12.49L21.38 12.49L21.38 12.49Q20.58 11.54 20.58 10.00L20.58 10.00L20.58 10.00Q20.58 8.46 21.62 7.42L21.62 7.42L21.62 7.42Q22.67 6.38 24.00 6.38L24.00 6.38L24.00 6.38Q25.34 6.38 26.22 6.99L26.22 6.99L26.22 6.99Q25.68 7.85 25.51 8.04L25.51 8.04L25.51 8.04Q24.56 7.31 23.69 7.31L23.69 7.31L23.69 7.31Q23.37 7.31 23.06 7.35L23.06 7.35ZM37.55 10.36L37.55 8.58L35.34 8.57L35.34 8.57Q33.95 8.57 33.14 8.58L33.14 8.58L33.14 10.36L33.14 10.36Q33.14 10.88 33.20 11.87L33.20 11.87L33.20 11.87Q33.26 12.87 33.35 13.19L33.35 13.19L33.35 13.29L31.49 13.29L31.49 13.19L31.49 13.19Q31.70 12.38 31.70 10.35L31.70 10.35L31.70 6.43L31.70 6.43Q31.70 4.40 31.49 3.58L31.49 3.58L31.49 3.49L33.35 3.49L33.35 3.58L33.35 3.58Q33.26 3.91 33.20 4.91L33.20 4.91L33.20 4.91Q33.14 5.91 33.14 6.43L33.14 6.43L33.14 7.70L37.55 7.70L37.55 6.43L37.55 6.43Q37.55 5.91 37.48 4.91L37.48 4.91L37.48 4.91Q37.42 3.91 37.34 3.58L37.34 3.58L37.34 3.49L39.20 3.49L39.20 3.58L39.20 3.58Q38.99 4.40 38.99 6.43L38.99 6.43L38.99 10.35L38.99 10.35Q38.99 12.38 39.20 13.19L39.20 13.19L39.20 13.29L37.34 13.29L37.34 13.19L37.34 13.19Q37.42 12.87 37.48 11.87L37.48 11.87L37.48 11.87Q37.55 10.88 37.55 10.36L37.55 10.36ZM43.15 3.51L43.15 3.51L45.23 3.49L45.23 3.49Q48.59 3.49 48.59 5.91L48.59 5.91L48.59 5.91Q48.59 7.08 47.82 7.87L47.82 7.87L47.82 7.87Q47.04 8.67 45.75 8.82L45.75 8.82L47.36 10.85L47.36 10.85Q48.37 12.12 48.87 12.59L48.87 12.59L48.87 12.59Q49.38 13.05 49.74 13.15L49.74 13.15L49.74 13.29L47.45 13.29L47.45 13.29Q47.18 12.85 46.61 12.04L46.61 12.04L44.34 8.86L43.93 8.83L43.93 11.03L43.93 11.03Q43.93 12.50 44.14 13.19L44.14 13.19L44.14 13.29L42.22 13.29L42.22 13.19L42.22 13.19Q42.49 12.47 42.49 11.19L42.49 11.19L42.49 5.75L42.49 5.75Q42.49 4.30 42.28 3.58L42.28 3.58L42.28 3.49L42.28 3.49Q42.28 3.49 43.15 3.51ZM45.05 4.20L45.05 4.20L45.05 4.20Q44.38 4.20 43.97 4.26L43.97 4.26L43.97 4.26Q43.93 4.56 43.93 8.15L43.93 8.15L43.93 8.15Q44.44 8.20 44.90 8.20L44.90 8.20L44.90 8.20Q46.07 8.20 46.56 7.66L46.56 7.66L46.56 7.66Q47.04 7.13 47.04 6.07L47.04 6.07L47.04 6.07Q47.04 5.01 46.59 4.61L46.59 4.61L46.59 4.61Q46.14 4.20 45.05 4.20ZM52.85 6.57L52.85 6.57L52.85 10.35L52.85 10.35Q52.85 10.86 52.91 11.87L52.91 11.87L52.91 11.87Q52.98 12.87 53.06 13.19L53.06 13.19L53.06 13.29L51.20 13.29L51.20 13.19L51.20 13.19Q51.41 12.38 51.41 10.21L51.41 10.21L51.41 6.43L51.41 6.43Q51.41 4.40 51.20 3.58L51.20 3.58L51.20 3.49L53.06 3.49L53.06 3.58L53.06 3.58Q52.98 3.91 52.91 4.97L52.91 4.97L52.91 4.97Q52.85 6.03 52.85 6.57ZM56.99 4.44L56.99 4.44L56.99 4.44Q56.70 4.82 56.70 5.35L56.70 5.35L56.70 5.35Q56.70 5.89 56.97 6.24L56.97 6.24L56.97 6.24Q57.23 6.59 57.67 6.82L57.67 6.82L57.67 6.82Q58.10 7.06 58.62 7.27L58.62 7.27L58.62 7.27Q59.14 7.49 59.65 7.75L59.65 7.75L59.65 7.75Q60.17 8.01 60.61 8.35L60.61 8.35L60.61 8.35Q61.04 8.69 61.31 9.26L61.31 9.26L61.31 9.26Q61.57 9.83 61.57 10.57L61.57 10.57L61.57 10.57Q61.57 11.98 60.66 12.71L60.66 12.71L60.66 12.71Q59.75 13.44 58.17 13.44L58.17 13.44L58.17 13.44Q56.59 13.44 55.33 12.54L55.33 12.54L55.33 12.54Q55.37 11.62 55.83 10.93L55.83 10.93L55.83 10.93Q56.39 11.61 57.19 12.04L57.19 12.04L57.19 12.04Q57.99 12.47 58.72 12.47L58.72 12.47L58.72 12.47Q59.44 12.47 59.96 12.15L59.96 12.15L59.96 12.15Q60.31 11.73 60.31 11.05L60.31 11.05L60.31 11.05Q60.31 10.36 59.95 9.93L59.95 9.93L59.95 9.93Q59.60 9.49 59.07 9.25L59.07 9.25L59.07 9.25Q58.55 9.00 57.92 8.70L57.92 8.70L57.92 8.70Q57.30 8.40 56.78 8.09L56.78 8.09L56.78 8.09Q56.25 7.78 55.89 7.21L55.89 7.21L55.89 7.21Q55.54 6.64 55.54 5.87L55.54 5.87L55.54 5.87Q55.54 4.58 56.41 3.95L56.41 3.95L56.41 3.95Q57.29 3.32 58.61 3.32L58.61 3.32L58.61 3.32Q59.93 3.32 61.32 3.96L61.32 3.96L61.32 3.96Q61.17 4.79 60.82 5.53L60.82 5.53L60.82 5.53Q60.24 4.96 59.49 4.58L59.49 4.58L59.49 4.58Q58.74 4.21 58.07 4.21L58.07 4.21L58.07 4.21Q57.40 4.21 56.99 4.44Z"></path></g><!----><g data-v-423bf9ae="" id="c673f787-331a-4d11-80aa-611ec0b37cb5" transform="matrix(2.0881610446506076,0,0,2.0881610446506076,-40.68117912171226,-11.92785677793654)" stroke="none" fill="white"><path d="M107.3 89.5c-2-2-3.9-4.4-5.6-6.8-.4-.6-1.5-.5-2.5.2-.9.7-1.4 1.7-.9 2.3 1.8 2.5 3.8 5 6 7.3 1.9 1.9 4 3.5 6.4 4.7 2.4 1.1 5.1 1.8 7.8 1.6.3 0 .5-.9.2-1.1-4.6-1.8-8.1-4.9-11.4-8.2z"></path><path d="M131.8 145.4c-2.3-3.7-5.8-6.6-9.6-8.6-1.8-.9-3.7-1.6-5.6-2.2 1.9-1.3 3.6-2.8 5.1-4.6 1.8-2 3.3-4.3 4.4-6.8.6-1.1.9-2.2 1.3-3.3.5.2 1 .4 1.5.4.6 0 1.2 0 1.8-.2.6-.2 1.2-.5 1.6-.8.9-.7 1.6-1.5 2.1-2.2.3-.4.5-.7.7-1.1.2-.4.5-.9.6-1.4.2-.7.5-1.6.3-2.8-.1-.6-.3-1.3-.7-1.8-.4-.6-.9-1.1-1.4-1.4-1-.7-2-.9-3-.9-.9 0-1.7.2-2.3.4-.6.2-.4 1.6.2 3.2.3.7.6 1.3.8 1.8 0 .1 0 .1-.1.2-.1.3-.3.7-.4.9-.2.6-.4 1.1-.5 1.5-.1.2-.1.4-.2.5-.1.2-.2.4-.3.5.1-.4.2-.8.2-1.3.1-.6.1-1.3 0-1.8-.1-.6-.3-1.1-.6-1.5-.5-.8-1.3-1.3-2.1-1.3-.9 0-1.7.5-2.3 1.1-.3.3-.5.7-.7 1.1-.2.4-.4.9-.5 1.4-.1 1.1-.5 2.1-.7 3.1-.4 1-.7 2-1.2 3-.9 1.9-2.1 3.7-3.5 5.3-2.8 3.2-6.5 5.6-10.6 6.8-6.7 1.9-14.2 1.1-20.2-2.9-3-1.9-5.6-4.5-7.6-7.6-2-3.1-3.3-6.7-3.8-10.5 0-.3-.2-.4-.3-.6v-.2c0-.2.1-.4.1-.6 1 .4 2.3.6 3.4.5 1.7-.2 3.3-.8 4.7-1.7 2.7-1.7 4.8-4.2 6.2-6.8.6-1 1.1-2.1 1.5-3.2.1.2.3.3.4.5.6.7 1.1 1.3 1.7 2 1.3 1.2 2.4 2.5 3.8 3.5 3.3 2.6 7 4.7 11.1 5.8 1.5.4 3 .7 4.5.9 3.5.4 7.1.1 10.4-.9 2-.6 4-1.5 5.7-2.6.6-.4 0-1.6-.7-1.5-4.9 1.4-9.9 1.3-14.5 0-4.6-1.2-8.8-3.7-12.6-6.6-1.2-.9-2.1-2-3.2-2.9l-1.4-1.7c-.2-.3-.5-.6-.7-.8l-.6-.9c-1.7-2.3-2.9-5-3.8-7.7-.3-1-1.3-1.7-2.5-1.8.9-.7 2-1.1 3-1.7l1.6-.6.8-.3.8-.2c3.7-1 7.7-1.1 11.5-.5 3.8.6 7.5 2 10.6 4.3 6.3 4.6 10.7 12.2 12.2 20.5.2 1.1 1.6 1 1.6-.1 0-4.4-.8-8.9-2.6-13.1-1.8-4.2-4.4-8.1-8-11.2-3.6-3.1-8-5.3-12.7-6.2-4.7-.9-9.5-.9-14.2.3l-1.1.3-1 .4c-.7.3-1.4.5-2.1.8-1.3.7-2.7 1.3-3.9 2.1-2.5 1.5-4.7 3.5-6.6 5.8-3.8 4.4-6.3 9.8-7.6 15.3-.1.7-.2 1.3-.2 1.9.1.6.2 1.2.4 1.6.4.9 1.1 1.5 2 1.6.9.1 1.7-.3 2.4-1 .3-.3.6-.8.9-1.2.3-.5.5-1 .6-1.5 1.1-4.7 3.2-9.1 6.3-12.7.5-.6 1.1-1.2 1.7-1.7 0 .3 0 .5.1.8.4 1.1.8 2.2 1.3 3.3v.1c0 1.1-.3 2.5-.7 3.9-.4 1.4-1 2.7-1.7 4-1.2 2.1-2.4 4.2-3.9 5.9-.7.9-1.5 1.6-2.4 2.2-.7.4-1.5.7-2.4.8-.1-.8-.4-1.3-.7-1.4l-1.8-.2-.9-.1c-.6-.1-1.2-.1-1.8-.1-1.2 0-2.2.4-3.1 1.2-.9.7-1.4 1.8-1.7 2.9-.1.5-.2 1-.2 1.4v1.2c0 .6.1 1.3.2 1.9.3 1.3.9 2.7 2 3.8 1.1 1.2 2.7 1.8 4 1.8 1.3 0 2.4-.3 3.4-.6.4 1.4.8 2.7 1.4 4 1.7 3.9 4.4 7.3 7.8 10.1.4.3.7.6 1.1.8-4.5 1.4-9 4-12.3 7.7-3.7 4.1-5.6 9.3-6.7 14.2-1 5-1.3 9.9-1.5 14.8-.1 4.9 0 9.6.1 14.4.1 4.5 1.5 8.1 3.2 8.1 1.7 0 3.1-3.7 3-8.3-.1-4.8-.2-9.5-.1-14.2.1-4.7.4-9.3 1.3-13.6.9-4.3 2.6-8.3 5.3-11.4 2.7-3 6.4-5.1 10.6-6.2 2.1-.6 4.3-1 6.5-1.2.1 4.1 1.7 7.6 3.4 10.7-.3.5-.5.9-.7 1.4-.5.9-.9 1.8-1.2 2.8-.4.9-.6 1.8-.9 2.8-.9 3-1.5 6-1.9 9-.4 3-.6 6-.7 9-.1 6 .3 12 1.8 17.9.2.8 1.6.5 1.6-.2 0-5.8.9-11.5 1.7-17.2.4-2.8.9-5.7 1.5-8.5.5-2.8 1.2-5.6 2-8.2.2-.8.5-1.6.8-2.3.6 1 1.1 2 1.5 2.9 2 4.7 3.2 10.2 4.1 15.6.8 5.5 1.3 11 .9 16.6 0 .7 1.3 1.1 1.6.3 2-5.5 2.7-11.5 2.6-17.4-.1-5.9-1-11.9-3.4-17.7-1-2.4-2.4-4.5-3.6-6.4 1.2-1.4 2.5-3.2 3.3-5.3.7-1.8 1-3.8.9-5.8h.3c3.6.4 7.2 1.3 10.4 2.7 3.1 1.5 5.9 3.6 7.9 6.5 2.1 2.8 3.4 6.2 4.3 9.8.9 3.6 1.4 7.4 1.7 11.2.6 7.6.6 15.4 1 23.2.1 2 1.5 2 1.6 0 .4-7.7 1.1-15.5 1-23.4 0-4-.3-8-1-12-.6-4.1-1.8-8.2-4.2-11.8zm-.4-32.9zm-30.1 31.7c-.2-.4-.3-.8-.5-1.2-.4-1.1-.7-2.2-.8-3.2.9 0 1.8 0 2.6-.1 0 1-.2 2-.6 2.9 0 .5-.3 1.1-.7 1.6zM71.6 117c-.6-.5-.8-.9-.9-1.4-.1-.4-.1-1-.1-1.6v-1.3c0-.1 0 0 0 0l2.5.3c0 1.7.1 3.5.4 5.2-.7-.5-1.4-.8-1.9-1.2z"></path><path d="M78.9 159.3c-.5 6.5-.9 13-1.1 19.5-.1 3.9-.3 7.9-.7 11.8-.1.9.7 1.8 1.9 1.9 1.1.2 2.2-.5 2.3-1.5.4-4.1.6-8.1.7-12.1.2-6.6-.4-13.2-2-19.7-.2-.4-1.1-.3-1.1.1zM123.6 158.7c-.1-.4-1.1-.3-1.1.2 0 6.9-.1 13.8.2 20.6.2 4.2.3 8.4.3 12.6 0 1 .9 1.8 2.1 1.8 1.2 0 2.1-.8 2.1-1.8 0-4.3-.1-8.5-.3-12.8-.3-6.9-1.2-13.9-3.3-20.6zM179.8 151.8c-.3-3.8-.9-7.8-2.9-11.6-1-1.9-2.3-3.7-3.9-5.1-1.6-1.5-3.5-2.6-5.4-3.5-.6-.3-1.2-.5-1.8-.7 3-2.5 5.3-5.9 6.6-9.6.2 0 .3.1.5.1.5.1 1 0 1.5-.1.5-.2 1-.4 1.4-.6.4-.3.7-.6 1-.8.3-.3.5-.5.7-.8.4-.6.8-1 1.1-2 .2-.6.4-1.4.2-2.5-.1-.5-.3-1.1-.6-1.6s-.8-1-1.2-1.3c-.9-.6-1.8-.8-2.7-.8-.4 0-.7.1-1 .1-.3.1-.7.1-.9.2-.1 0-.1.1-.2.2-.2-.3-.4-.5-.6-.5-3.6.8-7.1.5-10.4-.5-3.2-1-6.2-2.7-8.8-4.8-3.2-2.6-5.6-6.1-6.8-9.8-.1-.4-.6-.8-1.2-.9 3.3-1.8 7.3-2.3 11.2-1.6 4 .7 7.6 2.6 10.5 5.7 2.9 3.1 5.1 7.1 6.3 11.7.2.6 1.6.5 1.6-.1.3-4.9-.9-10.2-3.8-14.7s-8-7.9-13.5-8.7c-3.3-.6-6.6-.5-9.9.3-3.3.8-6.4 2.3-9 4.5-1.3 1.1-1.1 3 .2 4.1.5.5 1.1.8 1.7.9v.7c.2.8.5 1.6.9 2.3 0 .6-.1 1.4-.4 2.1-.5 1.6-.5 3.4-.3 5.9 0 .2 1.2 1 1.3.9 1.4-.5 2.5-1.2 3.4-2.2 1.2 1.4 2.5 2.7 3.9 3.9 3.3 2.7 7.4 4.5 11.8 4.9 2.1.2 4.3.1 6.4-.4 2-.5 3.9-1.4 5.5-2.6.1.6.3 1.2.5 2 .1.3.2.6.3.8-.5-.7-1.5-1.2-2.6-1.1-1.3 0-2.4.5-3 1.2-.2.2-.3.4-.3.7-.5 4.4-3 8.5-6.6 11-5.9 4.2-14.4 4.8-21.5.2h-.1c-.5-.1-1.3.7-1 1.2.6.8 1.3 1.6 2.1 2.3-.4.1-.7.2-1.1.4-1.1.4-2 1.2-2.4 2.1-.4.9-.4 1.8.1 2.5s1.2 1.2 2 1.4c.8.2 1.7.2 2.5-.1 2.5-.9 5.3-1.4 8.2-1.6.2 0 .4.1.6.1 2.1.3 4.2.3 6.4-.1 3.1.2 6.1.8 8.7 2 2.8 1.3 5.1 3.2 6.6 5.8 1.6 2.6 2.4 5.9 3 9.3.3 1.7.5 3.5.7 5.2.2 1.8.3 3.6.4 5.4.3 3.6.6 7.2 1 10.9.1 1 1.5 1 1.6 0 .4-3.6.8-7.3 1.1-10.9.1-1.8.3-3.6.4-5.5.1-2.1.1-4 0-5.9zm-5.4-34.7zm.3-1.9z"></path><path d="M171.2 156.3c-.5-2.5-1.1-5-2-7.4-.1-.3-1-.2-1.1.2-.1 2.5-.3 5-.3 7.5-.1 2.5 0 5 0 7.5l.2 9.1c0 .7 1 1.3 2.1 1.3 1.2 0 2.1-.6 2.1-1.3l-.2-9.3c-.1-2.6-.4-5.1-.8-7.6zM60.9 130.9c-.4-.1-.7-.2-1.1-.4.8-.7 1.5-1.5 2.1-2.3.3-.5-.5-1.3-1-1.2h-.1c-7.1 4.6-15.7 4-21.5-.2-3.6-2.5-6.1-6.6-6.6-11 0-.2-.1-.5-.3-.7-.5-.7-1.6-1.2-3-1.2-1.1 0-2 .4-2.6 1.1.1-.3.2-.5.3-.8.3-.7.5-1.4.5-2 1.6 1.2 3.5 2.1 5.5 2.6 2.1.5 4.2.7 6.4.4 4.3-.4 8.4-2.2 11.8-4.9 1.4-1.2 2.7-2.5 3.9-3.9.9 1 2 1.8 3.4 2.2.2.1 1.3-.8 1.3-.9.2-2.5.2-4.3-.3-5.9-.2-.8-.3-1.5-.4-2.1.3-.8.6-1.5.9-2.3.1-.2.1-.5 0-.7.6-.2 1.1-.5 1.7-.9 1.3-1.1 1.5-3.1.2-4.1-2.6-2.2-5.7-3.8-9-4.5-3.3-.8-6.6-.8-9.9-.3-5.5.9-10.5 4.3-13.5 8.7-3 4.5-4.2 9.7-3.8 14.7 0 .7 1.4.7 1.6.1 1.2-4.5 3.4-8.6 6.3-11.7 2.9-3.1 6.5-5 10.5-5.7 3.9-.7 7.9-.1 11.2 1.6-.6.2-1 .5-1.2.9-1.2 3.8-3.6 7.3-6.8 9.8-2.6 2.1-5.6 3.8-8.8 4.8-3.2 1-6.7 1.3-10.4.5-.2 0-.5.2-.6.5 0-.1-.1-.2-.2-.2-.2-.1-.5-.1-.9-.2-.3-.1-.6-.1-1-.1-.9 0-1.7.2-2.7.8-.5.3-.9.7-1.2 1.3-.3.5-.5 1.1-.6 1.6-.2 1.1 0 1.9.2 2.5.3 1 .7 1.5 1.1 2 .2.3.4.5.7.8.3.3.6.6 1 .8.4.3.8.5 1.4.6.5.1 1 .2 1.5.1.2 0 .3-.1.5-.1 1.3 3.7 3.6 7 6.6 9.6-.6.2-1.2.4-1.8.7-1.9.9-3.8 2-5.4 3.5-1.6 1.5-2.9 3.3-3.9 5.1-2 3.8-2.6 7.8-2.9 11.6-.1 1.9-.1 3.8-.1 5.7.1 1.9.3 3.7.4 5.5.3 3.7.7 7.3 1.1 10.9.1 1 1.5 1 1.6 0 .4-3.6.7-7.2 1-10.9.1-1.8.2-3.6.4-5.4.2-1.8.4-3.5.7-5.2.6-3.4 1.5-6.7 3-9.3 1.5-2.6 3.8-4.6 6.6-5.8 2.6-1.1 5.6-1.7 8.7-2 2.1.4 4.3.4 6.4.1.2 0 .4-.1.6-.1 2.9.2 5.7.6 8.2 1.6.9.3 1.7.3 2.5.1.8-.2 1.6-.7 2-1.4.5-.7.5-1.6.1-2.5-.3-.7-1.2-1.5-2.3-1.9zm-35.6-15.7zm.3 1.9z"></path><path d="M31.9 149c0-.3-.9-.5-1.1-.2-.9 2.4-1.5 4.9-2 7.4s-.8 5.1-.8 7.6l-.2 9.3c0 .7.9 1.3 2.1 1.3 1.2 0 2.1-.6 2.1-1.3l.2-9.1c0-2.5.1-5 0-7.5l-.3-7.5zM77.2 27.7c1.6.7 3 .9 3.2.5.8-1.8 1.9-3.4 3.2-4.9 2.1-2.4 4.2-4.9 6.8-7.7.2-.2-.4-1.5-.6-1.5-4.1 0-8.2 1.9-10.9 5.1-1.7 1.9-3.1 4-4.2 6.3-.2.5.9 1.5 2.5 2.2zM78 46.4c-.2-.2-1.5.4-1.5.6.1 4.1 2.1 8.1 5.3 10.8 1.9 1.6 4.1 3 6.4 4.1.6.3 1.5-.8 2.2-2.4.7-1.6.8-3 .4-3.2-1.8-.8-3.4-1.9-4.9-3.2-2.5-2.1-5.1-4.1-7.9-6.7zM119.5 46.1c-.8 1.8-1.9 3.4-3.2 4.9-2.1 2.4-4.2 4.9-6.8 7.7-.2.2.4 1.5.6 1.5 4.1 0 8.2-1.9 10.9-5.1 1.7-1.9 3.1-4 4.2-6.3.3-.6-.8-1.6-2.4-2.2-1.7-.7-3.1-.9-3.3-.5zM109.1 18c1.8.8 3.4 1.9 4.9 3.2 2.5 2.1 5 4.1 7.8 6.7.2.2 1.5-.4 1.5-.6-.1-4.1-2.1-8.1-5.3-10.8-1.9-1.6-4.1-3-6.4-4.1-.6-.3-1.5.8-2.2 2.4-.5 1.6-.7 3-.3 3.2zM92.4 14.6c.1.3.2.6.2.9.1.6.5 1.1.8 1.7.8 1.2 2.1 2.3 3.4 2.7 1.3.5 2.7.7 4 .5 1.3-.2 2.7-.6 3.9-1.5 1.2-.9 2.1-2.2 2.5-3.6.2-.7-.1-1.3-.6-1.8-.5-.4-1.3-.6-2.2-.6-.9 0-1.7.1-2.2.2-.6.1-.9.2-1 .3 0 .3-.2.3-.3.5-.1.2-.5.2-.8.3-.7.1-1.4-.2-1.5-.5 0-.1-.1-.1-.1-.2 0 0 0-.1-.1-.1v-.2c0-.1-.1-.3 0-.4v-.2-.2c0-.4.1-.8.8-1.2 1.2-.7 3.6-.8 4.5 1.6.1.1.5.2.8.2.4 0 .7-.1.8-.3.1-.8.1-1.7-.2-2.6l-.3-.7c-.1-.2-.3-.4-.4-.6-.3-.4-.6-.8-1-1.1-1.5-1.3-3.6-1.8-5.7-1.4-.5.1-1 .3-1.6.5-.5.3-1 .5-1.5.9-.4.4-.9.8-1.2 1.3-.2.2-.3.5-.5.8-.1.3-.2.5-.3.8-.1.3-.2.6-.3.8l-.1.8c-.1.6-.1 1.1 0 1.7.2.1.2.4.2.7zM67.7 38.9c.1.3.2.6.2.9.1.6.5 1.1.8 1.7.8 1.2 2.1 2.3 3.4 2.7 1.3.5 2.7.7 4 .5 1.3-.2 2.7-.6 3.9-1.5 1.2-.9 2.1-2.2 2.5-3.6.2-.7-.1-1.3-.6-1.8-.5-.4-1.3-.6-2.2-.6.4 0 .7-.1.8-.3.1-.8.1-1.7-.2-2.6l-.3-.7c-.1-.2-.3-.4-.4-.6-.3-.4-.6-.8-1-1.1-1.5-1.3-3.6-1.8-5.7-1.4-.5.1-1 .3-1.6.5-.5.3-1 .5-1.5.9-.4.4-.9.8-1.2 1.3-.2.2-.3.5-.5.8-.1.3-.2.5-.3.8-.1.3-.2.6-.3.8l-.1.8c-.1.6-.1 1.1 0 1.7.2.2.2.5.3.8zm6-2.3c0-.4.1-.8.8-1.2 1.2-.7 3.6-.8 4.5 1.6.1.1.5.2.8.2-.9 0-1.7.1-2.2.2-.6.1-.9.2-1 .3 0 .3-.2.3-.3.5-.1.2-.5.2-.8.3-.7.1-1.4-.2-1.5-.5 0-.1-.1-.1-.1-.2 0 0 0-.1-.1-.1v-.2c0-.1-.1-.3 0-.4v-.2c-.1-.2-.1-.3-.1-.3zM92.4 63c.1.3.2.6.2.9.1.6.5 1.1.8 1.7.8 1.2 2.1 2.3 3.4 2.7 1.3.5 2.7.7 4 .5 1.3-.2 2.7-.6 3.9-1.5 1.2-.9 2.1-2.2 2.5-3.6.2-.7-.1-1.3-.6-1.8-.5-.4-1.3-.6-2.2-.6-.9 0-1.7.1-2.2.2-.6.1-.9.2-1 .3 0 .3-.2.3-.3.5-.1.2-.5.2-.8.3-.7.1-1.4-.2-1.5-.5 0-.1-.1-.1-.1-.2 0 0 0-.1-.1-.1v-.2c0-.1-.1-.3 0-.4V61v-.2c0-.4.1-.8.8-1.2 1.2-.7 3.6-.8 4.5 1.6.1.1.5.2.8.2.4 0 .7-.1.8-.3.1-.8.1-1.7-.2-2.6l-.3-.7c-.1-.2-.3-.4-.4-.6-.3-.4-.6-.8-1-1.1-1.5-1.3-3.6-1.8-5.7-1.4-.5.1-1 .3-1.6.5-.5.3-1 .5-1.5.9-.4.4-.9.8-1.2 1.3-.2.2-.3.5-.5.8-.1.3-.2.5-.3.8-.1.3-.2.6-.3.8l-.1.8c-.1.6-.1 1.1 0 1.7.2.2.2.5.2.7zM121 30.9c-.5.3-1 .5-1.5.9-.4.4-.9.8-1.2 1.3-.2.2-.3.5-.5.8-.1.3-.2.5-.3.8-.1.3-.2.6-.3.8l-.1.8c-.1.6-.1 1.1 0 1.7 0 .3 0 .6.1.8.1.3.2.6.2.9.1.6.5 1.1.8 1.7.8 1.2 2.1 2.3 3.4 2.7 1.3.5 2.7.7 4 .5 1.3-.2 2.7-.6 3.9-1.5 1.2-.9 2.1-2.2 2.5-3.6.2-.7-.1-1.3-.6-1.8-.5-.4-1.3-.6-2.2-.6.4 0 .7-.1.8-.3.1-.8.1-1.7-.2-2.6l-.3-.7c-.1-.2-.3-.4-.4-.6-.3-.4-.6-.8-1-1.1-1.5-1.3-3.6-1.8-5.7-1.4-.4.1-.9.3-1.4.5zm2.2 5.7c0-.4.1-.8.8-1.2 1.2-.7 3.6-.8 4.5 1.6.1.1.5.2.8.2-.9 0-1.7.1-2.2.2-.6.1-.9.2-1 .3 0 .3-.2.3-.3.5-.1.2-.5.2-.8.3-.7.1-1.4-.2-1.5-.5 0-.1-.1-.1-.1-.2 0 0 0-.1-.1-.1v-.2c0-.1-.1-.3 0-.4v-.2c-.2-.2-.1-.3-.1-.3z"></path></g><!----></svg>